#!OML:ASF X:\für Bonn\!DataBase\2005_08_12_Daniel\c3d\Daniel.ASF
:FULLY-SPECIFIED
:DEGREES
846
root 1.93552 15.8168 -0.894233 -90.9495 -86.2431 79.2183
lowerback 20.0548 -2.81694 -3.65026
upperback 2.83738 -4.88946 -2.11357
thorax -8.0059 -2.36348 1.08367
lowerneck -3.33217 3.35277 -4.79917
upperneck 5.0644 4.69242 0.341356
head 2.03805 2.24138 1.04862
rclavicle 6.97858e-014 1.61016e-014
rhumerus -48.881 -29.9662 -62.7802
rradius 25.6294
rwrist -35.9208
rhand -17.9575 15.719
rfingers 7.12502
rthumb 8.31137 -14.0975
lclavicle 6.97858e-014 1.61016e-014
lhumerus -67.0309 55.9905 29.7671
lradius 34.5337
lwrist 37.0003
lhand -18.7505 -2.59026
lfingers 7.12502
lthumb 7.54602 27.2551
rfemur -10.5651 -2.65273 17.1889
rtibia 57.5842
rfoot -34.3251 0.829821
rtoes -11.2508
lfemur -14.205 -11.7977 -27.5287
ltibia 60.2259
lfoot -33.8105 -2.41981
ltoes 1.6554
847
root 1.95692 15.7816 -0.88012 -93.3222 -86.2434 81.3598
lowerback 20.4875 -2.82198 -3.54588
upperback 2.9684 -4.90276 -2.13517
thorax -8.10601 -2.37562 1.02752
lowerneck -3.4161 3.33428 -4.73182
upperneck 4.51595 4.67126 0.213948
head 1.87873 2.2412 0.988162
rclavicle -2.04997e-014 -1.74931e-014
rhumerus -49.0581 -30.7227 -63.8025
rradius 24.6711
rwrist -33.9249
rhand -17.2591 15.4789
rfingers 7.12502
rthumb 8.98535 -14.3097
lclavicle -2.04997e-014 -1.74931e-014
lhumerus -67.3455 56.5689 31.0715
lradius 34.2539
lwrist 36.5112
lhand -19.0283 -2.33654
lfingers 7.12502
lthumb 7.27785 27.5183
rfemur -11.0336 -2.23345 17.2611
rtibia 58.636
rfoot -34.0764 0.531468
rtoes -11.0383
lfemur -14.6377 -11.8046 -27.6917
ltibia 61.1986
lfoot -33.3136 -2.07691
ltoes 1.80374
848
root 1.97798 15.7644 -0.865342 -95.4648 -86.2327 83.2868
lowerback 20.8365 -2.83445 -3.46502
upperback 3.10647 -4.92478 -2.14848
thorax -8.14945 -2.39281 0.990426
lowerneck -3.36751 3.32393 -4.68603
upperneck 3.90407 4.65157 0.083962
head 1.67599 2.24227 0.926409
rclavicle 3.30604e-014 1.39149e-015
rhumerus -49.183 -31.5275 -64.5934
rradius 23.3875
rwrist -31.2036
rhand -16.6561 15.461
rfingers 7.12502
rthumb 9.56713 -14.3018
lclavicle 3.30604e-014 1.39149e-015
lhumerus -66.8834 56.7896 32.9871
lradius 33.3129
lwrist 35.9505
lhand -19.3664 -2.2927
lfingers 7.12502
lthumb 6.95146 27.5732
rfemur -11.5547 -1.87175 17.2921
rtibia 59.6538
rfoot -33.5344 0.299841
rtoes -10.7795
lfemur -14.9757 -11.7766 -27.8412
ltibia 61.9637
lfoot -32.5984 -1.72085
ltoes 1.70337
849
root 1.99738 15.7719 -0.851485 -97.557 -86.2126 85.2105
lowerback 21.1145 -2.83956 -3.39608
upperback 3.22286 -4.93619 -2.17013
thorax -8.1782 -2.40438 0.944588
lowerneck -3.33546 3.31182 -4.5843
upperneck 3.40928 4.62822 -0.0645185
head 1.51693 2.23914 0.85244
rclavicle -4.00924e-014 1.33186e-014
rhumerus -49.3666 -32.6062 -64.9213
rradius 21.8369
rwrist -27.4928
rhand -16.2161 15.5695
rfingers 7.12502
rthumb 9.99163 -14.1734
lclavicle -4.00924e-014 1.33186e-014
lhumerus -65.5665 56.5837 35.566
lradius 31.7951
lwrist 35.1694
lhand -19.7692 -2.30976
lfingers 7.12502
lthumb 6.56264 27.5686
rfemur -12.0966 -1.51034 17.3065
rtibia 60.5429
rfoot -32.8321 -0.00714832
rtoes -10.7763
lfemur -15.2419 -11.6958 -27.9348
ltibia 62.4379
lfoot -31.7376 -1.48317
ltoes 1.68977
850
root 2.01422 15.8033 -0.837815 -99.3882 -86.1847 86.8869
lowerback 21.3337 -2.85234 -3.34436
upperback 3.34619 -4.9585 -2.19551
thorax -8.16598 -2.42201 0.903512
lowerneck -3.37362 3.30837 -4.44497
upperneck 3.00499 4.61886 -0.220893
head 1.40061 2.24109 0.773811
rclavicle -8.44835e-016 2.20651e-014
rhumerus -49.5402 -33.7354 -64.9515
rradius 20.101
rwrist -22.8773
rhand -15.9384 15.782
rfingers 7.12502
rthumb 10.2596 -13.9478
lclavicle -8.44835e-016 2.20651e-014
lhumerus -64.2082 56.3342 37.9683
lradius 30.069
lwrist 33.6488
lhand -19.9754 -2.2293
lfingers 7.12502
lthumb 6.36356 27.6551
rfemur -12.5326 -1.15023 17.305
rtibia 61.1818
rfoot -31.8727 -0.325628
rtoes -10.7391
lfemur -15.3333 -11.5706 -27.9956
ltibia 62.5494
lfoot -30.895 -1.34925
ltoes 1.77902
851
root 2.02909 15.8528 -0.824729 -101.145 -86.142 88.56
lowerback 21.4451 -2.86143 -3.29733
upperback 3.44653 -4.97157 -2.2309
thorax -8.12215 -2.43512 0.84596
lowerneck -3.47741 3.30546 -4.25071
upperneck 2.77501 4.61357 -0.401782
head 1.35328 2.24129 0.683457
rclavicle -5.14355e-015 -3.77691e-015
rhumerus -49.8513 -34.9616 -64.5632
rradius 18.2604
rwrist -17.254
rhand -15.7878 16.0081
rfingers 7.12502
rthumb 10.4048 -13.7144
lclavicle -5.14355e-015 -3.77691e-015
lhumerus -62.6391 55.9032 40.3926
lradius 28.2062
lwrist 31.4742
lhand -19.9291 -2.13981
lfingers 7.12502
lthumb 6.4083 27.7432
rfemur -12.8564 -0.767053 17.2862
rtibia 61.474
rfoot -30.6086 -0.620204
rtoes -10.6321
lfemur -15.3023 -11.3088 -27.9882
ltibia 62.2724
lfoot -30.0729 -1.44049
ltoes 2.01218
852
root 2.04794 15.9156 -0.811359 -102.662 -86.1068 90.019
lowerback 21.5528 -2.87742 -3.27656
upperback 3.53727 -4.99586 -2.23359
thorax -8.08113 -2.45184 0.841613
lowerneck -3.74041 3.31709 -4.09076
upperneck 2.73025 4.63931 -0.574426
head 1.3914 2.25234 0.609166
rclavicle 8.65707e-014 -3.97569e-015
rhumerus -49.9302 -35.6698 -64.3621
rradius 16.4647
rwrist -11.2156
rhand -15.7797 16.0949
rfingers 7.12502
rthumb 10.4127 -13.6273
lclavicle 8.65707e-014 -3.97569e-015
lhumerus -61.1331 55.4578 42.6157
lradius 26.3206
lwrist 28.5009
lhand -19.5536 -2.12701
lfingers 7.12502
lthumb 6.77072 27.7447
rfemur -12.9843 -0.41762 17.2574
rtibia 61.3372
rfoot -29.3692 -0.846826
rtoes -10.4583
lfemur -15.1407 -10.9246 -27.9003
ltibia 61.6475
lfoot -29.2054 -1.76654
ltoes 2.2977
853
root 2.06643 15.9947 -0.79816 -103.853 -86.0551 91.2118
lowerback 21.5974 -2.89047 -3.25067
upperback 3.59289 -5.01311 -2.25667
thorax -8.04764 -2.46418 0.807762
lowerneck -4.0494 3.32299 -3.89605
upperneck 2.82503 4.65953 -0.737604
head 1.48314 2.25815 0.5354
rclavicle 5.23798e-014 -5.1684e-015
rhumerus -50.0325 -36.2031 -64.007
rradius 14.7013
rwrist -4.49549
rhand -15.6124 16.0856
rfingers 7.12502
rthumb 10.5741 -13.6283
lclavicle 5.23798e-014 -5.1684e-015
lhumerus -59.7103 54.9653 44.5374
lradius 24.4615
lwrist 24.7194
lhand -18.8063 -2.219
lfingers 7.12502
lthumb 7.49216 27.6283
rfemur -12.8822 -0.0662611 17.2041
rtibia 60.7402
rfoot -28.2596 -1.00722
rtoes -10.1576
lfemur -14.8498 -10.5179 -27.7936
ltibia 60.6984
lfoot -28.288 -2.14914
ltoes 2.53025
854
root 2.08432 16.0887 -0.786122 -104.741 -85.9835 92.1619
lowerback 21.5538 -2.90747 -3.26845
upperback 3.64483 -5.03967 -2.27323
thorax -7.96675 -2.48061 0.802708
lowerneck -4.38068 3.33717 -3.74179
upperneck 2.93582 4.69209 -0.856448
head 1.58254 2.27006 0.48315
rclavicle 1.7903e-014 2.08724e-014
rhumerus -50.3783 -37.1098 -62.9199
rradius 12.9558
rwrist 3.58737
rhand -15.175 16.2056
rfingers 7.12502
rthumb 10.9959 -13.4864
lclavicle 1.7903e-014 2.08724e-014
lhumerus -58.332 54.4688 46.2504
lradius 22.7557
lwrist 20.4032
lhand -17.8901 -2.46577
lfingers 7.12502
lthumb 8.37641 27.3481
rfemur -12.5744 0.27499 17.1192
rtibia 59.7303
rfoot -27.1463 -1.10026
rtoes -9.7617
lfemur -14.4304 -10.1781 -27.7092
ltibia 59.4574
lfoot -27.3254 -2.53979
ltoes 2.89241
855
root 2.10134 16.1949 -0.774344 -105.199 -85.9135 92.7435
lowerback 21.439 -2.93471 -3.29784
upperback 3.65566 -5.07543 -2.27152
thorax -7.89017 -2.49914 0.823295
lowerneck -4.5998 3.35532 -3.66943
upperneck 2.9928 4.72682 -0.957547
head 1.64308 2.28363 0.446561
rclavicle -3.35449e-014 -1.05356e-014
rhumerus -51.6339 -38.9684 -60.1613
rradius 11.3373
rwrist 13.6024
rhand -14.3047 16.6005
rfingers 7.12502
rthumb 11.8353 -13.0451
lclavicle -3.35449e-014 -1.05356e-014
lhumerus -57.1513 53.9533 47.68
lradius 21.3201
lwrist 15.6648
lhand -16.8177 -2.84216
lfingers 7.12502
lthumb 9.41126 26.9277
rfemur -12.0959 0.566008 17.0121
rtibia 58.3718
rfoot -26.0725 -1.12774
rtoes -9.30905
lfemur -13.8312 -9.94 -27.6521
ltibia 57.9628
lfoot -26.3522 -2.80971
ltoes 3.06719
856
root 2.11694 16.3122 -0.763673 -105.334 -85.8374 93.0616
lowerback 21.2562 -2.95912 -3.34103
upperback 3.64375 -5.10686 -2.27688
thorax -7.80186 -2.51474 0.839191
lowerneck -4.74156 3.36996 -3.6275
upperneck 2.97021 4.75162 -1.01039
head 1.66274 2.29494 0.426736
rclavicle -5.41564e-014 -2.60408e-014
rhumerus -54.2444 -41.8329 -55.4102
rradius 10.0825
rwrist 25.3126
rhand -13.1399 17.3302
rfingers 7.12502
rthumb 12.9584 -12.2474
lclavicle -5.41564e-014 -2.60408e-014
lhumerus -56.0932 53.4316 48.8182
lradius 20.1592
lwrist 10.6188
lhand -15.6923 -3.31533
lfingers 7.12502
lthumb 10.4969 26.4026
rfemur -11.493 0.747663 16.8672
rtibia 56.7501
rfoot -25.0121 -1.1088
rtoes -8.89986
lfemur -13.1607 -9.73205 -27.6003
ltibia 56.2546
lfoot -25.3586 -3.04999
ltoes 3.1821
857
root 2.13176 16.436 -0.753409 -104.902 -85.7666 92.8775
lowerback 20.9916 -2.99404 -3.39533
upperback 3.61577 -5.14694 -2.26121
thorax -7.68417 -2.53388 0.881388
lowerneck -4.8517 3.37467 -3.70438
upperneck 2.90796 4.76574 -1.00292
head 1.66004 2.30175 0.443823
rclavicle 4.83295e-015 -1.98785e-016
rhumerus -53.7232 -41.9652 -55.4066
rradius 9.223
rwrist 32.1492
rhand -12.2651 17.524
rfingers 7.12502
rthumb 13.8015 -11.9981
lclavicle 4.83295e-015 -1.98785e-016
lhumerus -55.1141 52.9239 49.8449
lradius 19.3624
lwrist 5.58929
lhand -14.5628 -3.74281
lfingers 7.12502
lthumb 11.5864 25.9169
rfemur -10.8477 0.794061 16.69
rtibia 54.9671
rfoot -23.9373 -1.03444
rtoes -8.44045
lfemur -12.4891 -9.56226 -27.5229
ltibia 54.3997
lfoot -24.2763 -3.28711
ltoes 3.25895
858
root 2.14465 16.561 -0.744049 -104.389 -85.6891 92.7472
lowerback 20.5603 -3.03828 -3.46555
upperback 3.55072 -5.19125 -2.23804
thorax -7.51539 -2.55436 0.931785
lowerneck -4.90235 3.38048 -3.82894
upperneck 2.80268 4.77994 -0.980371
head 1.63146 2.30947 0.471445
rclavicle 2.29969e-014 -1.35174e-014
rhumerus -53.2805 -42.0129 -55.3466
rradius 8.78791
rwrist 38.1023
rhand -11.0987 17.8794
rfingers 7.12502
rthumb 14.9254 -11.5629
lclavicle 2.29969e-014 -1.35174e-014
lhumerus -54.2901 52.4277 50.6999
lradius 18.932
lwrist 0.692224
lhand -13.4928 -4.11953
lfingers 7.12502
lthumb 12.6181 25.4794
rfemur -10.2918 0.823637 16.492
rtibia 53.1123
rfoot -22.8637 -0.937663
rtoes -7.93413
lfemur -11.9226 -9.35683 -27.4152
ltibia 52.4629
lfoot -23.1673 -3.56988
ltoes 3.11
859
root 2.15797 16.6827 -0.735694 -103.369 -85.6042 92.2399
lowerback 20.0144 -3.10167 -3.56145
upperback 3.43324 -5.25676 -2.20016
thorax -7.33708 -2.58261 1.01117
lowerneck -4.96626 3.40619 -4.00316
upperneck 2.72824 4.82392 -0.921319
head 1.61275 2.33174 0.520278
rclavicle -4.65529e-014 5.96354e-015
rhumerus -53.04 -41.9052 -55.1611
rradius 8.81068
rwrist 42.9886
rhand -9.72225 18.3603
rfingers 7.12502
rthumb 16.2511 -10.9786
lclavicle -4.65529e-014 5.96354e-015
lhumerus -53.5286 51.8937 51.5167
lradius 18.8482
lwrist -3.94716
lhand -12.5445 -4.33068
lfingers 7.12502
lthumb 13.5323 25.2096
rfemur -9.86693 0.82424 16.2548
rtibia 51.2557
rfoot -21.831 -0.745718
rtoes -7.2821
lfemur -11.5133 -9.16468 -27.288
ltibia 50.5333
lfoot -22.0427 -3.80478
ltoes 2.88485
